<svg viewBox="0 0 948 2268" fill="none" xmlns="http://www.w3.org/2000/svg">
    <rect width="48" height="48" rx="6" transform="matrix(4.37114e-08 1 1 -4.37114e-08 0 2040)" fill="#032F62" />
    <rect width="48" height="48" rx="6" transform="matrix(4.37114e-08 1 1 -4.37114e-08 60 2040)" fill="#24292E" />
    <rect width="48" height="48" rx="6" transform="matrix(4.37114e-08 1 1 -4.37114e-08 120 2040)" fill="#24292E" />
    <rect width="48" height="48" rx="6" transform="matrix(4.37114e-08 1 1 -4.37114e-08 180 2040)" fill="#005CC5" />
    <rect width="48" height="48" rx="6" transform="matrix(4.37114e-08 1 1 -4.37114e-08 720 1740)" fill="#005CC5" />
    <rect width="48" height="48" rx="6" transform="matrix(4.37114e-08 1 1 -4.37114e-08 300 2040)" fill="#24292E" />
    <rect width="48" height="48" rx="6" transform="matrix(4.37114e-08 1 1 -4.37114e-08 840 1740)" fill="#24292E" />
    <rect width="48" height="48" rx="6" transform="matrix(4.37114e-08 1 1 -4.37114e-08 360 2040)" fill="#24292E" />
    <rect width="48" height="48" rx="6" transform="matrix(4.37114e-08 1 1 -4.37114e-08 900 1740)" fill="#24292E" />
    <rect width="48" height="48" rx="6" transform="matrix(4.37114e-08 1 1 -4.37114e-08 540 2040)" fill="#24292E" />
    <rect width="48" height="48" rx="6" transform="matrix(4.37114e-08 1 1 -4.37114e-08 600 2040)" fill="#24292E" />
    <rect width="48" height="48" rx="6" transform="matrix(4.37114e-08 1 1 -4.37114e-08 840 1380)" fill="#24292E" />
    <rect width="48" height="48" rx="6" transform="matrix(4.37114e-08 1 1 -4.37114e-08 660 2040)" fill="#005CC5" />
    <rect width="48" height="48" rx="6" transform="matrix(4.37114e-08 1 1 -4.37114e-08 720 2040)" fill="#032F62" />
    <rect width="48" height="48" rx="6" transform="matrix(4.37114e-08 1 1 -4.37114e-08 780 2040)" fill="#24292E" />
    <rect width="48" height="48" rx="6" transform="matrix(4.37114e-08 1 1 -4.37114e-08 840 2040)" fill="#24292E" />
    <rect width="48" height="48" rx="6" transform="matrix(4.37114e-08 1 1 -4.37114e-08 120 1800)" fill="#005CC5" />
    <rect width="48" height="48" rx="6" transform="matrix(4.37114e-08 1 1 -4.37114e-08 780 1500)" fill="#24292E" />
    <rect width="48" height="48" rx="6" transform="matrix(4.37114e-08 1 1 -4.37114e-08 360 1800)" fill="#032F62" />
    <rect width="48" height="48" rx="6" transform="matrix(4.37114e-08 1 1 -4.37114e-08 900 1500)" fill="#032F62" />
    <rect width="48" height="48" rx="6" transform="matrix(4.37114e-08 1 1 -4.37114e-08 480 1800)" fill="#24292E" />
    <rect width="48" height="48" rx="6" transform="matrix(4.37114e-08 1 1 -4.37114e-08 540 1800)" fill="#005CC5" />
    <rect width="48" height="48" rx="6" transform="matrix(4.37114e-08 1 1 -4.37114e-08 660 1800)" fill="#24292E" />
    <rect width="48" height="48" rx="6" transform="matrix(4.37114e-08 1 1 -4.37114e-08 900 1140)" fill="#24292E" />
    <rect width="48" height="48" rx="6" transform="matrix(4.37114e-08 1 1 -4.37114e-08 720 1800)" fill="#24292E" />
    <rect width="48" height="48" rx="6" transform="matrix(4.37114e-08 1 1 -4.37114e-08 780 1800)" fill="#032F62" />
    <rect width="48" height="48" rx="6" transform="matrix(4.37114e-08 1 1 -4.37114e-08 0 2100)" fill="#24292E" />
    <rect width="48" height="48" rx="6" transform="matrix(4.37114e-08 1 1 -4.37114e-08 120 2100)" fill="#24292E" />
    <rect width="48" height="48" rx="6" transform="matrix(4.37114e-08 1 1 -4.37114e-08 180 2100)" fill="#032F62" />
    <rect width="48" height="48" rx="6" transform="matrix(4.37114e-08 1 1 -4.37114e-08 300 2100)" fill="#24292E" />
    <rect width="48" height="48" rx="6" transform="matrix(4.37114e-08 1 1 -4.37114e-08 420 2100)" fill="#24292E" />
    <rect width="48" height="48" rx="6" transform="matrix(4.37114e-08 1 1 -4.37114e-08 540 2100)" fill="#005CC5" />
    <rect width="48" height="48" rx="6" transform="matrix(4.37114e-08 1 1 -4.37114e-08 600 1860)" fill="#24292E" />
    <rect width="48" height="48" rx="6" transform="matrix(4.37114e-08 1 1 -4.37114e-08 840 1440)" fill="#24292E" />
    <rect width="48" height="48" rx="6" transform="matrix(4.37114e-08 1 1 -4.37114e-08 900 1440)" fill="#24292E" />
    <rect width="48" height="48" rx="6" transform="matrix(4.37114e-08 1 1 -4.37114e-08 720 2100)" fill="#24292E" />
    <rect width="48" height="48" rx="6" transform="matrix(4.37114e-08 1 1 -4.37114e-08 840 2100)" fill="#24292E" />
    <rect width="48" height="48" rx="6" transform="matrix(4.37114e-08 1 1 -4.37114e-08 900 2100)" fill="#005CC5" />
    <rect width="48" height="48" rx="6" transform="matrix(4.37114e-08 1 1 -4.37114e-08 180 1860)" fill="#032F62" />
    <rect width="48" height="48" rx="6" transform="matrix(4.37114e-08 1 1 -4.37114e-08 240 1860)" fill="#24292E" />
    <rect width="48" height="48" rx="6" transform="matrix(4.37114e-08 1 1 -4.37114e-08 780 1560)" fill="#24292E" />
    <rect width="48" height="48" rx="6" transform="matrix(4.37114e-08 1 1 -4.37114e-08 900 1560)" fill="#032F62" />
    <rect width="48" height="48" rx="6" transform="matrix(4.37114e-08 1 1 -4.37114e-08 840 1200)" fill="#24292E" />
    <rect width="48" height="48" rx="6" transform="matrix(4.37114e-08 1 1 -4.37114e-08 660 1860)" fill="#032F62" />
    <rect width="48" height="48" rx="6" transform="matrix(4.37114e-08 1 1 -4.37114e-08 720 1860)" fill="#24292E" />
    <rect width="48" height="48" rx="6" transform="matrix(4.37114e-08 1 1 -4.37114e-08 840 1860)" fill="#24292E" />
    <rect width="48" height="48" rx="6" transform="matrix(4.37114e-08 1 1 -4.37114e-08 900 1860)" fill="#24292E" />
    <rect width="48" height="48" rx="6" transform="matrix(4.37114e-08 1 1 -4.37114e-08 60 2160)" fill="#24292E" />
    <rect width="48" height="48" rx="6" transform="matrix(4.37114e-08 1 1 -4.37114e-08 180 2160)" fill="#24292E" />
    <rect width="48" height="48" rx="6" transform="matrix(4.37114e-08 1 1 -4.37114e-08 240 2160)" fill="#005CC5" />
    <rect width="48" height="48" rx="6" transform="matrix(4.37114e-08 1 1 -4.37114e-08 360 2160)" fill="#032F62" />
    <rect width="48" height="48" rx="6" transform="matrix(4.37114e-08 1 1 -4.37114e-08 420 2160)" fill="#24292E" />
    <rect width="48" height="48" rx="6" transform="matrix(4.37114e-08 1 1 -4.37114e-08 480 2160)" fill="#24292E" />
    <rect width="48" height="48" rx="6" transform="matrix(4.37114e-08 1 1 -4.37114e-08 660 2160)" fill="#24292E" />
    <rect width="48" height="48" rx="6" transform="matrix(4.37114e-08 1 1 -4.37114e-08 720 2160)" fill="#24292E" />
    <rect width="48" height="48" rx="6" transform="matrix(4.37114e-08 1 1 -4.37114e-08 780 2160)" fill="#005CC5" />
    <rect width="48" height="48" rx="6" transform="matrix(4.37114e-08 1 1 -4.37114e-08 900 2160)" fill="#032F62" />
    <rect width="48" height="48" rx="6" transform="matrix(4.37114e-08 1 1 -4.37114e-08 60 1920)" fill="#005CC5" />
    <rect width="48" height="48" rx="6" transform="matrix(4.37114e-08 1 1 -4.37114e-08 120 1920)" fill="#24292E" />
    <rect width="48" height="48" rx="6" transform="matrix(4.37114e-08 1 1 -4.37114e-08 780 1620)" fill="#032F62" />
    <rect width="48" height="48" rx="6" transform="matrix(4.37114e-08 1 1 -4.37114e-08 300 1920)" fill="#24292E" />
    <rect width="48" height="48" rx="6" transform="matrix(4.37114e-08 1 1 -4.37114e-08 840 1620)" fill="#24292E" />
    <rect width="48" height="48" rx="6" transform="matrix(4.37114e-08 1 1 -4.37114e-08 360 1920)" fill="#24292E" />
    <rect width="48" height="48" rx="6" transform="matrix(4.37114e-08 1 1 -4.37114e-08 900 1620)" fill="#24292E" />
    <rect width="48" height="48" rx="6" transform="matrix(4.37114e-08 1 1 -4.37114e-08 480 1920)" fill="#032F62" />
    <rect width="48" height="48" rx="6" transform="matrix(4.37114e-08 1 1 -4.37114e-08 540 1920)" fill="#24292E" />
    <rect width="48" height="48" rx="6" transform="matrix(4.37114e-08 1 1 -4.37114e-08 600 1920)" fill="#032F62" />
    <rect width="48" height="48" rx="6" transform="matrix(4.37114e-08 1 1 -4.37114e-08 660 1920)" fill="#24292E" />
    <rect width="48" height="48" rx="6" transform="matrix(4.37114e-08 1 1 -4.37114e-08 900 1260)" fill="#24292E" />
    <rect width="48" height="48" rx="6" transform="matrix(4.37114e-08 1 1 -4.37114e-08 780 1920)" fill="#24292E" />
    <rect width="48" height="48" rx="6" transform="matrix(4.37114e-08 1 1 -4.37114e-08 840 1920)" fill="#032F62" />
    <rect width="48" height="48" rx="6" transform="matrix(4.37114e-08 1 1 -4.37114e-08 0 2220)" fill="#005CC5" />
    <rect width="48" height="48" rx="6" transform="matrix(4.37114e-08 1 1 -4.37114e-08 60 2220)" fill="#032F62" />
    <rect width="48" height="48" rx="6" transform="matrix(4.37114e-08 1 1 -4.37114e-08 120 2220)" fill="#24292E" />
    <rect width="48" height="48" rx="6" transform="matrix(4.37114e-08 1 1 -4.37114e-08 240 2220)" fill="#005CC5" />
    <rect width="48" height="48" rx="6" transform="matrix(4.37114e-08 1 1 -4.37114e-08 300 2220)" fill="#24292E" />
    <rect width="48" height="48" rx="6" transform="matrix(4.37114e-08 1 1 -4.37114e-08 360 2220)" fill="#005CC5" />
    <rect width="48" height="48" rx="6" transform="matrix(4.37114e-08 1 1 -4.37114e-08 480 2220)" fill="#24292E" />
    <rect width="48" height="48" rx="6" transform="matrix(4.37114e-08 1 1 -4.37114e-08 600 2220)" fill="#24292E" />
    <rect width="48" height="48" rx="6" transform="matrix(4.37114e-08 1 1 -4.37114e-08 660 2220)" fill="#032F62" />
    <rect width="48" height="48" rx="6" transform="matrix(4.37114e-08 1 1 -4.37114e-08 900 2220)" fill="#24292E" />
    <rect width="48" height="48" rx="6" transform="matrix(4.37114e-08 1 1 -4.37114e-08 0 1980)" fill="#24292E" />
    <rect width="48" height="48" rx="6" transform="matrix(4.37114e-08 1 1 -4.37114e-08 60 1980)" fill="#032F62" />
    <rect width="48" height="48" rx="6" transform="matrix(4.37114e-08 1 1 -4.37114e-08 180 1980)" fill="#24292E" />
    <rect width="48" height="48" rx="6" transform="matrix(4.37114e-08 1 1 -4.37114e-08 720 1680)" fill="#24292E" />
    <rect width="48" height="48" rx="6" transform="matrix(4.37114e-08 1 1 -4.37114e-08 240 1980)" fill="#24292E" />
    <rect width="48" height="48" rx="6" transform="matrix(4.37114e-08 1 1 -4.37114e-08 780 1680)" fill="#24292E" />
    <rect width="48" height="48" rx="6" transform="matrix(4.37114e-08 1 1 -4.37114e-08 300 1980)" fill="#005CC5" />
    <rect width="48" height="48" rx="6" transform="matrix(4.37114e-08 1 1 -4.37114e-08 840 1680)" fill="#005CC5" />
    <rect width="48" height="48" rx="6" transform="matrix(4.37114e-08 1 1 -4.37114e-08 420 1980)" fill="#24292E" />
    <rect width="48" height="48" rx="6" transform="matrix(4.37114e-08 1 1 -4.37114e-08 480 1980)" fill="#032F62" />
    <rect width="48" height="48" rx="6" transform="matrix(4.37114e-08 1 1 -4.37114e-08 540 1980)" fill="#24292E" />
    <rect width="48" height="48" rx="6" transform="matrix(4.37114e-08 1 1 -4.37114e-08 660 1980)" fill="#005CC5" />
    <rect width="48" height="48" rx="6" transform="matrix(4.37114e-08 1 1 -4.37114e-08 900 1320)" fill="#005CC5" />
    <rect width="48" height="48" rx="6" transform="matrix(4.37114e-08 1 1 -4.37114e-08 720 1980)" fill="#24292E" />
    <rect width="48" height="48" rx="6" transform="matrix(4.37114e-08 1 1 -4.37114e-08 900 1980)" fill="#005CC5" />
    <rect y="228" width="48" height="48" rx="6" transform="rotate(-90 0 228)" fill="#032F62" />
    <rect x="60" y="228" width="48" height="48" rx="6" transform="rotate(-90 60 228)" fill="#24292E" />
    <rect x="120" y="228" width="48" height="48" rx="6" transform="rotate(-90 120 228)" fill="#24292E" />
    <rect x="180" y="228" width="48" height="48" rx="6" transform="rotate(-90 180 228)" fill="#005CC5" />
    <rect x="720" y="528" width="48" height="48" rx="6" transform="rotate(-90 720 528)" fill="#005CC5" />
    <rect x="300" y="228" width="48" height="48" rx="6" transform="rotate(-90 300 228)" fill="#24292E" />
    <rect x="840" y="528" width="48" height="48" rx="6" transform="rotate(-90 840 528)" fill="#24292E" />
    <rect x="360" y="228" width="48" height="48" rx="6" transform="rotate(-90 360 228)" fill="#24292E" />
    <rect x="900" y="528" width="48" height="48" rx="6" transform="rotate(-90 900 528)" fill="#24292E" />
    <rect x="540" y="228" width="48" height="48" rx="6" transform="rotate(-90 540 228)" fill="#24292E" />
    <rect x="600" y="228" width="48" height="48" rx="6" transform="rotate(-90 600 228)" fill="#24292E" />
    <rect x="840" y="888" width="48" height="48" rx="6" transform="rotate(-90 840 888)" fill="#24292E" />
    <rect x="660" y="228" width="48" height="48" rx="6" transform="rotate(-90 660 228)" fill="#005CC5" />
    <rect x="720" y="228" width="48" height="48" rx="6" transform="rotate(-90 720 228)" fill="#032F62" />
    <rect x="780" y="228" width="48" height="48" rx="6" transform="rotate(-90 780 228)" fill="#24292E" />
    <rect x="840" y="228" width="48" height="48" rx="6" transform="rotate(-90 840 228)" fill="#24292E" />
    <rect x="120" y="468" width="48" height="48" rx="6" transform="rotate(-90 120 468)" fill="#005CC5" />
    <rect x="780" y="768" width="48" height="48" rx="6" transform="rotate(-90 780 768)" fill="#24292E" />
    <rect x="360" y="468" width="48" height="48" rx="6" transform="rotate(-90 360 468)" fill="#032F62" />
    <rect x="900" y="768" width="48" height="48" rx="6" transform="rotate(-90 900 768)" fill="#032F62" />
    <rect x="480" y="468" width="48" height="48" rx="6" transform="rotate(-90 480 468)" fill="#24292E" />
    <rect x="540" y="468" width="48" height="48" rx="6" transform="rotate(-90 540 468)" fill="#005CC5" />
    <rect x="660" y="468" width="48" height="48" rx="6" transform="rotate(-90 660 468)" fill="#24292E" />
    <rect x="900" y="1128" width="48" height="48" rx="6" transform="rotate(-90 900 1128)" fill="#24292E" />
    <rect x="720" y="468" width="48" height="48" rx="6" transform="rotate(-90 720 468)" fill="#24292E" />
    <rect x="780" y="468" width="48" height="48" rx="6" transform="rotate(-90 780 468)" fill="#032F62" />
    <rect y="168" width="48" height="48" rx="6" transform="rotate(-90 0 168)" fill="#24292E" />
    <rect x="120" y="168" width="48" height="48" rx="6" transform="rotate(-90 120 168)" fill="#24292E" />
    <rect x="180" y="168" width="48" height="48" rx="6" transform="rotate(-90 180 168)" fill="#032F62" />
    <rect x="300" y="168" width="48" height="48" rx="6" transform="rotate(-90 300 168)" fill="#24292E" />
    <rect x="420" y="168" width="48" height="48" rx="6" transform="rotate(-90 420 168)" fill="#24292E" />
    <rect x="540" y="168" width="48" height="48" rx="6" transform="rotate(-90 540 168)" fill="#005CC5" />
    <rect x="600" y="408" width="48" height="48" rx="6" transform="rotate(-90 600 408)" fill="#24292E" />
    <rect x="840" y="828" width="48" height="48" rx="6" transform="rotate(-90 840 828)" fill="#24292E" />
    <rect x="900" y="828" width="48" height="48" rx="6" transform="rotate(-90 900 828)" fill="#24292E" />
    <rect x="720" y="168" width="48" height="48" rx="6" transform="rotate(-90 720 168)" fill="#24292E" />
    <rect x="840" y="168" width="48" height="48" rx="6" transform="rotate(-90 840 168)" fill="#24292E" />
    <rect x="900" y="168" width="48" height="48" rx="6" transform="rotate(-90 900 168)" fill="#005CC5" />
    <rect x="180" y="408" width="48" height="48" rx="6" transform="rotate(-90 180 408)" fill="#032F62" />
    <rect x="240" y="408" width="48" height="48" rx="6" transform="rotate(-90 240 408)" fill="#24292E" />
    <rect x="780" y="708" width="48" height="48" rx="6" transform="rotate(-90 780 708)" fill="#24292E" />
    <rect x="900" y="708" width="48" height="48" rx="6" transform="rotate(-90 900 708)" fill="#032F62" />
    <rect x="840" y="1068" width="48" height="48" rx="6" transform="rotate(-90 840 1068)" fill="#24292E" />
    <rect x="660" y="408" width="48" height="48" rx="6" transform="rotate(-90 660 408)" fill="#032F62" />
    <rect x="720" y="408" width="48" height="48" rx="6" transform="rotate(-90 720 408)" fill="#24292E" />
    <rect x="840" y="408" width="48" height="48" rx="6" transform="rotate(-90 840 408)" fill="#24292E" />
    <rect x="900" y="408" width="48" height="48" rx="6" transform="rotate(-90 900 408)" fill="#24292E" />
    <rect x="60" y="108" width="48" height="48" rx="6" transform="rotate(-90 60 108)" fill="#24292E" />
    <rect x="180" y="108" width="48" height="48" rx="6" transform="rotate(-90 180 108)" fill="#24292E" />
    <rect x="240" y="108" width="48" height="48" rx="6" transform="rotate(-90 240 108)" fill="#005CC5" />
    <rect x="360" y="108" width="48" height="48" rx="6" transform="rotate(-90 360 108)" fill="#032F62" />
    <rect x="420" y="108" width="48" height="48" rx="6" transform="rotate(-90 420 108)" fill="#24292E" />
    <rect x="480" y="108" width="48" height="48" rx="6" transform="rotate(-90 480 108)" fill="#24292E" />
    <rect x="660" y="108" width="48" height="48" rx="6" transform="rotate(-90 660 108)" fill="#24292E" />
    <rect x="720" y="108" width="48" height="48" rx="6" transform="rotate(-90 720 108)" fill="#24292E" />
    <rect x="780" y="108" width="48" height="48" rx="6" transform="rotate(-90 780 108)" fill="#005CC5" />
    <rect x="900" y="108" width="48" height="48" rx="6" transform="rotate(-90 900 108)" fill="#032F62" />
    <rect x="60" y="348" width="48" height="48" rx="6" transform="rotate(-90 60 348)" fill="#005CC5" />
    <rect x="120" y="348" width="48" height="48" rx="6" transform="rotate(-90 120 348)" fill="#24292E" />
    <rect x="780" y="648" width="48" height="48" rx="6" transform="rotate(-90 780 648)" fill="#032F62" />
    <rect x="300" y="348" width="48" height="48" rx="6" transform="rotate(-90 300 348)" fill="#24292E" />
    <rect x="840" y="648" width="48" height="48" rx="6" transform="rotate(-90 840 648)" fill="#24292E" />
    <rect x="360" y="348" width="48" height="48" rx="6" transform="rotate(-90 360 348)" fill="#24292E" />
    <rect x="900" y="648" width="48" height="48" rx="6" transform="rotate(-90 900 648)" fill="#24292E" />
    <rect x="480" y="348" width="48" height="48" rx="6" transform="rotate(-90 480 348)" fill="#032F62" />
    <rect x="540" y="348" width="48" height="48" rx="6" transform="rotate(-90 540 348)" fill="#24292E" />
    <rect x="600" y="348" width="48" height="48" rx="6" transform="rotate(-90 600 348)" fill="#032F62" />
    <rect x="660" y="348" width="48" height="48" rx="6" transform="rotate(-90 660 348)" fill="#24292E" />
    <rect x="900" y="1008" width="48" height="48" rx="6" transform="rotate(-90 900 1008)" fill="#24292E" />
    <rect x="780" y="348" width="48" height="48" rx="6" transform="rotate(-90 780 348)" fill="#24292E" />
    <rect x="840" y="348" width="48" height="48" rx="6" transform="rotate(-90 840 348)" fill="#032F62" />
    <rect y="48" width="48" height="48" rx="6" transform="rotate(-90 0 48)" fill="#005CC5" />
    <rect x="60" y="48" width="48" height="48" rx="6" transform="rotate(-90 60 48)" fill="#032F62" />
    <rect x="120" y="48" width="48" height="48" rx="6" transform="rotate(-90 120 48)" fill="#24292E" />
    <rect x="240" y="48" width="48" height="48" rx="6" transform="rotate(-90 240 48)" fill="#005CC5" />
    <rect x="300" y="48" width="48" height="48" rx="6" transform="rotate(-90 300 48)" fill="#24292E" />
    <rect x="360" y="48" width="48" height="48" rx="6" transform="rotate(-90 360 48)" fill="#005CC5" />
    <rect x="480" y="48" width="48" height="48" rx="6" transform="rotate(-90 480 48)" fill="#24292E" />
    <rect x="600" y="48" width="48" height="48" rx="6" transform="rotate(-90 600 48)" fill="#24292E" />
    <rect x="660" y="48" width="48" height="48" rx="6" transform="rotate(-90 660 48)" fill="#032F62" />
    <rect x="900" y="48" width="48" height="48" rx="6" transform="rotate(-90 900 48)" fill="#24292E" />
    <rect y="288" width="48" height="48" rx="6" transform="rotate(-90 0 288)" fill="#24292E" />
    <rect x="60" y="288" width="48" height="48" rx="6" transform="rotate(-90 60 288)" fill="#032F62" />
    <rect x="180" y="288" width="48" height="48" rx="6" transform="rotate(-90 180 288)" fill="#24292E" />
    <rect x="720" y="588" width="48" height="48" rx="6" transform="rotate(-90 720 588)" fill="#24292E" />
    <rect x="240" y="288" width="48" height="48" rx="6" transform="rotate(-90 240 288)" fill="#24292E" />
    <rect x="780" y="588" width="48" height="48" rx="6" transform="rotate(-90 780 588)" fill="#24292E" />
    <rect x="300" y="288" width="48" height="48" rx="6" transform="rotate(-90 300 288)" fill="#005CC5" />
    <rect x="840" y="588" width="48" height="48" rx="6" transform="rotate(-90 840 588)" fill="#005CC5" />
    <rect x="420" y="288" width="48" height="48" rx="6" transform="rotate(-90 420 288)" fill="#24292E" />
    <rect x="480" y="288" width="48" height="48" rx="6" transform="rotate(-90 480 288)" fill="#032F62" />
    <rect x="540" y="288" width="48" height="48" rx="6" transform="rotate(-90 540 288)" fill="#24292E" />
    <rect x="660" y="288" width="48" height="48" rx="6" transform="rotate(-90 660 288)" fill="#005CC5" />
    <rect x="900" y="948" width="48" height="48" rx="6" transform="rotate(-90 900 948)" fill="#005CC5" />
    <rect x="720" y="288" width="48" height="48" rx="6" transform="rotate(-90 720 288)" fill="#24292E" />
    <rect x="900" y="288" width="48" height="48" rx="6" transform="rotate(-90 900 288)" fill="#005CC5" />
</svg>
